<?xml version="1.0" encoding="UTF-8"?>
<!-- Generator: visioncortex VTracer 0.6.3 -->
<svg version="1.1" xmlns="http://www.w3.org/2000/svg" width="500" height="500">
<path d="M0 0 C1.34 -0 2.68 -0.01 4.02 -0.01 C7.69 -0.02 11.36 -0.02 15.04 -0.02 C19 -0.02 22.97 -0.03 26.93 -0.04 C35.6 -0.05 44.26 -0.06 52.93 -0.06 C58.34 -0.06 63.76 -0.07 69.17 -0.07 C84.18 -0.08 99.19 -0.09 114.2 -0.1 C115.16 -0.1 116.12 -0.1 117.1 -0.1 C118.07 -0.1 119.03 -0.1 120.02 -0.1 C121.97 -0.1 123.92 -0.1 125.87 -0.1 C126.84 -0.1 127.8 -0.1 128.8 -0.1 C144.46 -0.1 160.12 -0.12 175.77 -0.15 C191.87 -0.17 207.96 -0.18 224.05 -0.18 C233.08 -0.18 242.11 -0.19 251.14 -0.21 C258.83 -0.22 266.52 -0.23 274.21 -0.22 C278.13 -0.22 282.05 -0.22 285.96 -0.23 C289.56 -0.24 293.16 -0.24 296.76 -0.23 C298.65 -0.23 300.55 -0.24 302.45 -0.25 C330.07 -0.09 353.91 11.57 373.37 30.57 C396.47 54.9 400.52 83.45 400.41 115.7 C400.4 119.67 400.41 123.65 400.42 127.62 C400.44 135.39 400.44 143.15 400.42 150.91 C400.42 157.23 400.41 163.55 400.42 169.86 C400.42 170.77 400.42 171.67 400.42 172.6 C400.42 174.43 400.42 176.27 400.42 178.1 C400.44 195.26 400.42 212.42 400.4 229.57 C400.38 244.26 400.39 258.95 400.4 273.63 C400.43 290.74 400.43 307.84 400.42 324.94 C400.42 326.76 400.42 328.59 400.42 330.42 C400.42 331.77 400.42 331.77 400.42 333.14 C400.41 339.44 400.42 345.74 400.43 352.04 C400.44 359.73 400.44 367.42 400.41 375.11 C400.4 379.03 400.4 382.94 400.41 386.86 C400.52 421.16 394.18 447.79 369.88 473.14 C352.17 490.78 327.32 500.37 302.48 500.54 C301.27 500.53 300.06 500.53 298.8 500.52 C297.46 500.52 296.11 500.53 294.76 500.54 C291.11 500.55 287.45 500.54 283.8 500.53 C279.84 500.53 275.88 500.54 271.92 500.54 C264.19 500.56 256.45 500.56 248.71 500.55 C242.42 500.54 236.13 500.54 229.83 500.54 C228.93 500.54 228.04 500.54 227.11 500.54 C225.28 500.54 223.46 500.55 221.63 500.55 C204.55 500.55 187.46 500.54 170.38 500.53 C155.74 500.52 141.11 500.52 126.47 500.53 C109.44 500.55 92.42 500.55 75.39 500.54 C73.57 500.54 71.75 500.54 69.93 500.54 C69.04 500.54 68.14 500.54 67.22 500.54 C60.94 500.54 54.66 500.54 48.38 500.55 C40.72 500.56 33.06 500.56 25.4 500.54 C21.5 500.53 17.6 500.53 13.69 500.54 C10.11 500.55 6.53 500.54 2.95 500.53 C1.06 500.52 -0.83 500.53 -2.72 500.54 C-30.32 500.35 -54.15 488.71 -73.61 469.71 C-91.6 450.76 -100.46 426.35 -100.38 400.46 C-100.38 399.11 -100.38 397.75 -100.39 396.4 C-100.4 392.71 -100.4 389.03 -100.39 385.34 C-100.39 381.35 -100.4 377.36 -100.41 373.37 C-100.42 365.57 -100.42 357.77 -100.42 349.96 C-100.42 343.62 -100.42 337.27 -100.42 330.93 C-100.42 330.02 -100.42 329.12 -100.43 328.18 C-100.43 326.35 -100.43 324.51 -100.43 322.67 C-100.44 305.45 -100.44 288.22 -100.43 271 C-100.43 255.26 -100.44 239.53 -100.46 223.79 C-100.48 207.61 -100.48 191.43 -100.48 175.25 C-100.48 166.18 -100.48 157.1 -100.5 148.03 C-100.51 140.3 -100.51 132.58 -100.5 124.85 C-100.49 120.91 -100.49 116.98 -100.5 113.04 C-100.51 109.43 -100.51 105.81 -100.5 102.2 C-100.49 100.29 -100.5 98.39 -100.51 96.48 C-100.34 68.4 -87.65 45.3 -68.66 25.59 C-50.09 7.76 -25.25 -0.02 0 0 Z " fill="#5D5D5D" transform="translate(100.1170654296875,-0.14044189453125)"/>
<path d="M0 0 C1.02 -0.01 2.04 -0.02 3.1 -0.03 C4.21 -0.03 5.33 -0.03 6.47 -0.03 C7.65 -0.04 8.83 -0.05 10.05 -0.06 C13.29 -0.08 16.52 -0.09 19.76 -0.09 C21.79 -0.1 23.82 -0.1 25.85 -0.11 C32.96 -0.13 40.07 -0.15 47.18 -0.15 C53.76 -0.15 60.34 -0.18 66.92 -0.23 C72.6 -0.26 78.28 -0.28 83.95 -0.28 C87.33 -0.28 90.71 -0.29 94.09 -0.32 C116.43 -0.48 134.45 2.14 153.94 13.27 C154.95 13.84 155.95 14.41 156.99 14.99 C178.64 27.98 192.79 49.4 199.97 73.2 C200.3 74.55 200.63 75.91 200.94 77.27 C201.2 78.35 201.2 78.35 201.46 79.45 C203.73 90.65 203.23 102.08 203.21 113.46 C203.22 115.91 203.22 118.36 203.23 120.81 C203.24 126.76 203.24 132.7 203.24 138.65 C203.24 143.49 203.24 148.33 203.25 153.17 C203.25 153.86 203.25 154.55 203.25 155.26 C203.25 156.66 203.25 158.07 203.25 159.47 C203.26 172.61 203.26 185.75 203.25 198.89 C203.25 210.89 203.26 222.88 203.28 234.88 C203.3 247.22 203.31 259.57 203.3 271.92 C203.3 278.84 203.3 285.76 203.32 292.68 C203.33 299.19 203.33 305.69 203.32 312.2 C203.31 314.58 203.32 316.96 203.32 319.35 C203.37 334.41 203.16 348.59 196.69 362.52 C196.39 363.19 196.08 363.86 195.77 364.55 C193.1 370.27 189.93 375.37 185.94 380.27 C185.27 381.1 184.61 381.93 183.92 382.79 C171.12 397.84 152.27 408.52 132.43 410.65 C128.8 410.8 125.18 410.83 121.53 410.81 C120.16 410.81 118.78 410.82 117.4 410.83 C113.7 410.86 110.01 410.85 106.31 410.84 C103.21 410.84 100.11 410.85 97.01 410.85 C89.7 410.87 82.39 410.87 75.08 410.85 C67.56 410.83 60.04 410.85 52.51 410.88 C46.03 410.91 39.54 410.92 33.06 410.91 C29.19 410.9 25.33 410.9 21.47 410.93 C17.84 410.94 14.22 410.94 10.59 410.91 C8.64 410.91 6.68 410.92 4.73 410.94 C-3.43 410.85 -8.74 409.6 -14.57 403.76 C-18.9 398.84 -20.31 395.4 -20.32 388.89 C-20.32 388.24 -20.32 387.6 -20.33 386.94 C-20.34 384.78 -20.33 382.62 -20.33 380.46 C-20.33 378.9 -20.34 377.34 -20.34 375.78 C-20.35 371.48 -20.35 367.18 -20.35 362.89 C-20.35 358.25 -20.36 353.62 -20.37 348.99 C-20.39 339.91 -20.39 330.84 -20.39 321.76 C-20.4 314.38 -20.4 307.01 -20.41 299.63 C-20.42 278.72 -20.43 257.81 -20.43 236.9 C-20.43 235.78 -20.43 234.65 -20.43 233.49 C-20.43 232.36 -20.43 231.23 -20.43 230.06 C-20.43 211.77 -20.45 193.47 -20.48 175.17 C-20.51 156.39 -20.52 137.61 -20.52 118.83 C-20.52 108.28 -20.52 97.73 -20.54 87.19 C-20.56 78.21 -20.57 69.23 -20.55 60.25 C-20.55 55.66 -20.55 51.08 -20.56 46.5 C-20.58 42.3 -20.58 38.11 -20.56 33.91 C-20.56 32.4 -20.56 30.88 -20.57 29.36 C-20.63 20.4 -20.49 13.3 -14.28 6.25 C-13.71 5.8 -13.15 5.36 -12.56 4.9 C-11.99 4.44 -11.43 3.98 -10.84 3.5 C-7.17 0.97 -4.49 0.02 0 0 Z " fill="#727273" transform="translate(257.06068420410156,44.72584533691406)"/>
<path d="M0 0 C1.93 -0.01 1.93 -0.01 3.9 -0.02 C7.41 -0.03 10.91 -0.02 14.41 -0 C18.1 0.01 21.79 0 25.48 0 C31.67 -0 37.87 0.01 44.06 0.04 C51.19 0.06 58.32 0.06 65.45 0.05 C72.35 0.04 79.24 0.05 86.13 0.06 C89.05 0.07 91.97 0.07 94.89 0.06 C98.97 0.06 103.06 0.08 107.15 0.1 C108.34 0.09 109.53 0.09 110.76 0.08 C133.65 0.28 153.77 9.52 169.77 25.5 C170.51 26.23 171.26 26.97 172.02 27.72 C183.78 40.05 191.83 57.9 191.93 75 C191.94 76.29 191.95 77.59 191.96 78.92 C191.97 80.33 191.97 81.74 191.97 83.15 C191.98 84.23 191.98 84.23 191.98 85.33 C192 89.13 192.01 92.93 192.01 96.74 C192.02 100.62 192.04 104.51 192.07 108.4 C192.09 111.43 192.09 114.45 192.09 117.47 C192.1 118.9 192.1 120.33 192.12 121.77 C192.23 134.24 190.83 146.33 185.52 157.75 C185.22 158.42 184.91 159.09 184.6 159.78 C181.93 165.5 178.76 170.6 174.77 175.5 C174.1 176.33 173.44 177.16 172.75 178.01 C159.95 193.07 141.1 203.75 121.27 205.88 C117.63 206.02 114.01 206.05 110.36 206.04 C108.99 206.04 107.61 206.05 106.23 206.06 C102.53 206.08 98.84 206.08 95.14 206.07 C92.04 206.07 88.94 206.07 85.84 206.08 C78.53 206.1 71.22 206.09 63.91 206.08 C56.39 206.06 48.87 206.08 41.35 206.11 C34.86 206.14 28.37 206.14 21.89 206.13 C18.02 206.13 14.16 206.13 10.3 206.15 C6.67 206.17 3.05 206.16 -0.58 206.14 C-2.53 206.13 -4.49 206.15 -6.44 206.17 C-14.6 206.08 -19.91 204.83 -25.74 198.99 C-30.28 193.83 -31.48 190.34 -31.49 183.5 C-31.49 182.8 -31.5 182.09 -31.5 181.36 C-31.51 179 -31.51 176.64 -31.5 174.28 C-31.51 172.58 -31.51 170.89 -31.52 169.2 C-31.53 164.6 -31.53 159.99 -31.53 155.39 C-31.53 151.55 -31.54 147.71 -31.54 143.87 C-31.55 134.8 -31.55 125.74 -31.55 116.67 C-31.54 107.32 -31.55 97.97 -31.57 88.62 C-31.59 80.6 -31.6 72.57 -31.59 64.54 C-31.59 59.75 -31.59 54.95 -31.61 50.16 C-31.62 45.65 -31.62 41.14 -31.61 36.63 C-31.6 34.97 -31.61 33.32 -31.61 31.67 C-31.62 29.41 -31.62 27.15 -31.6 24.88 C-31.6 23.62 -31.6 22.36 -31.6 21.05 C-30.93 14.69 -28.24 8.67 -23.23 4.5 C-15.71 0.27 -8.45 -0.07 0 0 Z " fill="#5270FE" transform="translate(268.229736328125,249.498291015625)"/>
<path d="M0 0 C1.34 -0.01 2.68 -0.01 4.01 -0.02 C7.63 -0.04 11.25 -0.04 14.87 -0.04 C17.13 -0.05 19.39 -0.05 21.66 -0.05 C29.56 -0.07 37.47 -0.08 45.38 -0.08 C52.73 -0.08 60.09 -0.1 67.44 -0.13 C73.77 -0.16 80.1 -0.17 86.43 -0.17 C90.2 -0.17 93.98 -0.17 97.75 -0.19 C101.3 -0.21 104.85 -0.21 108.4 -0.2 C110.32 -0.2 112.23 -0.21 114.14 -0.23 C122.22 -0.17 127.75 0.78 134 6.26 C134.54 6.91 135.08 7.56 135.63 8.23 C136.19 8.88 136.74 9.52 137.31 10.19 C140.97 15.51 141.05 20.3 141.05 26.54 C141.05 27.47 141.06 28.39 141.07 29.34 C141.09 32.4 141.09 35.45 141.09 38.5 C141.1 40.62 141.11 42.75 141.11 44.88 C141.12 49.33 141.13 53.79 141.13 58.24 C141.13 63.94 141.15 69.64 141.19 75.34 C141.21 79.73 141.21 84.13 141.21 88.52 C141.22 90.62 141.22 92.72 141.24 94.82 C141.26 97.76 141.25 100.71 141.24 103.65 C141.25 104.51 141.26 105.37 141.28 106.26 C141.21 113.12 139.34 118.34 134.79 123.53 C134.14 124.07 133.49 124.61 132.82 125.17 C132.17 125.72 131.52 126.27 130.85 126.85 C126.72 129.69 123.1 130.54 118.12 130.56 C116.43 130.57 116.43 130.57 114.71 130.58 C113.49 130.58 112.26 130.58 111 130.58 C109.06 130.59 109.06 130.59 107.07 130.6 C103.52 130.62 99.97 130.62 96.42 130.63 C94.19 130.63 91.97 130.63 89.74 130.64 C81.97 130.65 74.19 130.66 66.41 130.66 C59.19 130.66 51.97 130.68 44.75 130.71 C38.53 130.74 32.31 130.75 26.1 130.75 C22.39 130.75 18.68 130.75 14.98 130.77 C10.83 130.8 6.69 130.79 2.55 130.78 C1.34 130.79 0.13 130.8 -1.11 130.81 C-15.11 130.71 -26.15 126.7 -36.46 117.26 C-44.03 109.46 -48.3 99.37 -48.44 88.52 C-48.45 87.36 -48.47 86.19 -48.49 85 C-48.53 79.67 -48.57 74.34 -48.59 69.01 C-48.61 66.21 -48.64 63.41 -48.68 60.61 C-48.74 56.56 -48.75 52.5 -48.77 48.45 C-48.79 47.21 -48.81 45.97 -48.84 44.7 C-48.8 31.71 -44.22 21.35 -35.14 12.17 C-24.42 2.14 -14.37 -0.01 0 0 Z " fill="#A5A5A5" transform="translate(81.243896484375,184.70947265625)"/>
<path d="M0 0 C1.77 -0.02 1.77 -0.02 3.57 -0.03 C4.86 -0.04 6.15 -0.04 7.48 -0.05 C8.86 -0.06 10.23 -0.07 11.61 -0.08 C16.12 -0.11 20.63 -0.13 25.14 -0.15 C25.91 -0.15 26.68 -0.15 27.47 -0.16 C34.73 -0.19 41.99 -0.22 49.24 -0.23 C58.51 -0.25 67.77 -0.3 77.04 -0.37 C83.56 -0.41 90.09 -0.44 96.61 -0.44 C100.5 -0.45 104.39 -0.46 108.28 -0.5 C111.95 -0.54 115.61 -0.55 119.28 -0.54 C121.25 -0.54 123.23 -0.57 125.2 -0.6 C133.11 -0.53 138.35 0.69 144.23 6.16 C149.59 12.26 150.38 17.36 150.42 25.26 C150.43 26.66 150.43 26.66 150.44 28.09 C150.47 31.18 150.49 34.27 150.5 37.36 C150.51 38.41 150.51 39.47 150.52 40.56 C150.54 46.15 150.56 51.74 150.58 57.34 C150.59 61.96 150.62 66.58 150.66 71.2 C150.71 76.79 150.73 82.38 150.74 87.96 C150.75 90.09 150.76 92.21 150.79 94.34 C150.82 97.32 150.82 100.3 150.81 103.28 C150.83 104.15 150.84 105.02 150.86 105.92 C150.79 113.26 148.28 119.07 143.09 124.32 C142.44 124.76 141.78 125.2 141.1 125.66 C140.44 126.12 139.78 126.59 139.09 127.07 C135.56 129.14 132.64 129.29 128.63 129.31 C127.47 129.32 126.3 129.33 125.1 129.34 C123.82 129.34 122.54 129.35 121.22 129.35 C119.86 129.36 118.5 129.37 117.14 129.38 C112.67 129.4 108.2 129.42 103.73 129.43 C102.19 129.44 100.65 129.44 99.1 129.45 C92.68 129.47 86.26 129.49 79.84 129.5 C70.66 129.52 61.48 129.55 52.3 129.61 C45.83 129.65 39.36 129.67 32.9 129.67 C29.04 129.68 25.19 129.69 21.33 129.72 C17.7 129.75 14.06 129.76 10.43 129.74 C8.47 129.74 6.52 129.77 4.57 129.79 C-8.27 129.7 -18.65 125.22 -27.77 116.16 C-30.09 113.31 -31.99 110.37 -33.77 107.16 C-34.17 106.44 -34.58 105.73 -34.99 104.99 C-37.95 99.39 -38.89 94.55 -38.97 88.18 C-38.98 87 -39 85.82 -39.01 84.6 C-39.06 79.19 -39.1 73.79 -39.12 68.38 C-39.14 65.54 -39.16 62.7 -39.21 59.85 C-39.26 56.4 -39.28 52.94 -39.29 49.49 C-39.3 47.56 -39.33 45.62 -39.37 43.69 C-39.34 31.34 -35.37 21.12 -26.77 12.16 C-18.89 5 -10.78 0.07 0 0 Z " fill="#A5A5A5" transform="translate(71.77336120605469,44.83937072753906)"/>
<path d="M0 0 C1.33 -0.01 2.67 -0.02 4 -0.03 C7.61 -0.06 11.21 -0.07 14.82 -0.08 C17.08 -0.08 19.34 -0.09 21.59 -0.1 C28.67 -0.13 35.75 -0.15 42.83 -0.16 C50.97 -0.16 59.11 -0.2 67.26 -0.26 C73.57 -0.3 79.89 -0.32 86.2 -0.32 C89.96 -0.33 93.73 -0.34 97.49 -0.37 C101.03 -0.41 104.57 -0.41 108.11 -0.39 C110.02 -0.39 111.92 -0.42 113.82 -0.45 C121.78 -0.37 127.5 1.11 133.67 6.32 C138.77 12.7 139.83 18.14 139.87 26.22 C139.88 27.59 139.88 27.59 139.89 28.99 C139.92 32.01 139.93 35.03 139.95 38.04 C139.95 39.08 139.96 40.11 139.96 41.17 C139.99 46.65 140.01 52.12 140.02 57.59 C140.04 62.11 140.07 66.63 140.11 71.14 C140.16 76.61 140.18 82.07 140.19 87.53 C140.19 89.61 140.21 91.69 140.23 93.76 C140.48 116.13 140.48 116.13 133.16 123.94 C128.62 128 124.95 129.57 118.92 129.6 C117.75 129.61 116.57 129.62 115.36 129.63 C114.08 129.63 112.79 129.63 111.47 129.63 C110.1 129.64 108.73 129.64 107.36 129.65 C103.63 129.68 99.91 129.68 96.19 129.69 C93.86 129.69 91.53 129.7 89.2 129.71 C81.07 129.73 72.93 129.74 64.79 129.75 C57.23 129.75 49.66 129.78 42.1 129.82 C35.59 129.86 29.08 129.87 22.57 129.87 C18.69 129.87 14.81 129.88 10.93 129.91 C7.28 129.94 3.62 129.94 -0.04 129.92 C-2 129.92 -3.97 129.94 -5.93 129.97 C-18.09 129.87 -28.59 125.95 -37.33 117.32 C-46.96 106.3 -49.95 95.79 -49.89 81.33 C-49.9 80.02 -49.9 78.71 -49.91 77.36 C-49.92 74.6 -49.92 71.85 -49.9 69.09 C-49.88 65.59 -49.91 62.1 -49.94 58.6 C-49.97 55.22 -49.96 51.83 -49.95 48.45 C-49.97 47.21 -49.98 45.98 -49.99 44.7 C-49.86 31.74 -45.29 21.37 -36.22 12.2 C-25.27 1.96 -14.67 0.03 0 0 Z " fill="#A5A5A5" transform="translate(82.32568359375,325.677734375)"/>
<path d="M0 0 C0.66 0.33 1.32 0.66 2 1 C-4.6 7.6 -11.2 14.2 -18 21 C-18 16.61 -15.25 14.64 -12.38 11.62 C-11.85 11.06 -11.33 10.5 -10.79 9.91 C-7.41 6.3 -3.86 3.1 0 0 Z " fill="#ABABAB" transform="translate(39,19)"/>
</svg>
